<svg width="99" height="99" viewBox="0 0 99 99" fill="none" xmlns="http://www.w3.org/2000/svg">
<rect x="36.001" y="1.93158" width="70" height="70" rx="10" transform="rotate(30.1351 36.001 1.93158)" fill="#FFAC37"/>
<path fill-rule="evenodd" clip-rule="evenodd" d="M36.129 40.7817C37.3854 35.0552 42.3968 30.5853 48.4142 31.895C51.5804 32.5824 54.2292 34.7984 55.478 37.753C58.5165 37.3489 61.886 38.5725 64.0535 40.9736C68.1749 45.5495 66.7901 52.1246 62.4419 56.0563C55.5917 62.3128 41.4208 61.9687 41.4208 61.9687C41.4208 61.9687 34.1219 49.9692 36.129 40.7817Z" stroke="white" stroke-width="4" stroke-linecap="round" stroke-linejoin="round"/>
<g filter="url(#filter0_b_1_2420)">
<rect x="35.8117" y="0.509644" width="71.8604" height="71.3346" rx="10" transform="rotate(29.6652 35.8117 0.509644)" fill="#FEEACE" fill-opacity="0.1"/>
</g>
<defs>
<filter id="filter0_b_1_2420" x="-0.857178" y="-0.853455" width="100.474" height="100.277" filterUnits="userSpaceOnUse" color-interpolation-filters="sRGB">
<feFlood flood-opacity="0" result="BackgroundImageFix"/>
<feGaussianBlur in="BackgroundImageFix" stdDeviation="2.5"/>
<feComposite in2="SourceAlpha" operator="in" result="effect1_backgroundBlur_1_2420"/>
<feBlend mode="normal" in="SourceGraphic" in2="effect1_backgroundBlur_1_2420" result="shape"/>
</filter>
</defs>
</svg>
